<svg xmlns="http://www.w3.org/2000/svg" width="135" height="40" viewBox="0 0 135 40" fill="none"><path d="M10.5822 14.9164C11.6781 14.9164 12.6666 15.0345 13.5476 15.2709C14.4287 15.5073 15.1271 15.8296 15.6428 16.2379C16.1585 16.6462 16.4164 17.1082 16.4164 17.624C16.4164 17.9033 16.3197 18.1719 16.1263 18.4298C15.9329 18.6877 15.675 18.8166 15.3527 18.8166C15.0519 18.8166 14.8047 18.7629 14.6113 18.6554C14.4394 18.548 14.2675 18.4083 14.0956 18.2364C13.9452 18.0645 13.7303 17.9141 13.4509 17.7851C13.1931 17.6347 12.817 17.5165 12.3228 17.4306C11.8285 17.3446 11.3343 17.3016 10.84 17.3016C9.65816 17.3016 8.61595 17.581 7.71342 18.1397C6.83238 18.6984 6.13399 19.4505 5.61826 20.396C5.10253 21.3415 4.84466 22.416 4.84466 23.6193C4.84466 24.8227 5.09178 25.8972 5.58602 26.8427C6.08027 27.7882 6.76791 28.5403 7.64896 29.099C8.53 29.6577 9.55072 29.9371 10.7111 29.9371C11.4632 29.9371 12.0649 29.8726 12.5162 29.7437C12.9674 29.6147 13.3435 29.4643 13.6443 29.2924C14.0311 29.0775 14.3212 28.8626 14.5146 28.6477C14.7295 28.4329 15.0089 28.3254 15.3527 28.3254C15.718 28.3254 15.9974 28.4436 16.1908 28.68C16.4057 28.9163 16.5131 29.2064 16.5131 29.5503C16.5131 29.9371 16.2445 30.3454 15.7073 30.7751C15.1701 31.2049 14.4394 31.5702 13.5154 31.8711C12.6129 32.1719 11.5814 32.3223 10.421 32.3223C8.78786 32.3223 7.35886 31.9463 6.13399 31.1942C4.90913 30.4206 3.95287 29.3784 3.26523 28.0675C2.59907 26.7352 2.266 25.2525 2.266 23.6193C2.266 21.9862 2.60982 20.5142 3.29746 19.2034C4.00659 17.8926 4.98434 16.8504 6.23069 16.0768C7.47704 15.3032 8.92754 14.9164 10.5822 14.9164Z" fill="#171B44"></path><path d="M45.87 14.9164C46.794 14.9164 47.6535 15.0775 48.4486 15.3999C49.2437 15.7007 49.9313 16.0982 50.5115 16.5925C51.1132 17.0867 51.5752 17.6025 51.8976 18.1397C52.2414 18.6769 52.4133 19.1819 52.4133 19.6547L51.8009 19.2679V16.4636C51.8009 16.0982 51.9191 15.7974 52.1554 15.561C52.3918 15.3032 52.7034 15.1742 53.0902 15.1742C53.4555 15.1742 53.7564 15.3032 53.9927 15.561C54.2506 15.7974 54.3795 16.0982 54.3795 16.4636V30.5817C54.3795 32.3438 54.0035 33.8051 53.2514 34.9655C52.5208 36.1259 51.5323 36.9962 50.2859 37.5764C49.0396 38.1566 47.6428 38.4467 46.0956 38.4467C45.4509 38.4467 44.7418 38.3607 43.9682 38.1888C43.1946 38.0169 42.5069 37.802 41.9053 37.5441C41.3036 37.3077 40.9168 37.0606 40.7449 36.8028C40.4225 36.5879 40.2184 36.3407 40.1324 36.0614C40.068 35.8035 40.1217 35.5564 40.2936 35.32C40.487 35.0192 40.7341 34.8688 41.035 34.8688C41.3573 34.8688 41.7548 34.9655 42.2276 35.1589C42.421 35.2233 42.7218 35.3308 43.1301 35.4812C43.5599 35.6316 44.0327 35.7605 44.5484 35.868C45.0856 35.9969 45.6121 36.0614 46.1278 36.0614C47.9544 36.0614 49.3511 35.5779 50.3181 34.6109C51.3066 33.6654 51.8009 32.4083 51.8009 30.8396V27.8419L52.1554 28.0031C52.0265 28.6048 51.7579 29.1635 51.3496 29.6792C50.9628 30.1949 50.4793 30.6569 49.8991 31.0652C49.3404 31.452 48.7172 31.7636 48.0296 32C47.3419 32.2149 46.6436 32.3223 45.9344 32.3223C44.4302 32.3223 43.0764 31.9463 41.873 31.1942C40.6697 30.4421 39.7134 29.4106 39.0043 28.0998C38.3166 26.789 37.9728 25.2955 37.9728 23.6193C37.9728 21.9217 38.3166 20.4175 39.0043 19.1067C39.7134 17.7959 40.6589 16.7751 41.8408 16.0445C43.0442 15.2924 44.3872 14.9164 45.87 14.9164ZM46.1923 17.3016C45.0964 17.3016 44.1079 17.581 43.2268 18.1397C42.3673 18.6769 41.6904 19.4183 41.1961 20.3638C40.7234 21.3093 40.487 22.3945 40.487 23.6193C40.487 24.8012 40.7234 25.8757 41.1961 26.8427C41.6904 27.7882 42.3673 28.5403 43.2268 29.099C44.1079 29.6577 45.0964 29.9371 46.1923 29.9371C47.3097 29.9371 48.2982 29.6685 49.1577 29.1312C50.0173 28.5725 50.6942 27.8204 51.1884 26.8749C51.6827 25.9294 51.9298 24.8442 51.9298 23.6193C51.9298 22.373 51.6827 21.2771 51.1884 20.3316C50.6942 19.386 50.0173 18.6447 49.1577 18.1075C48.2982 17.5702 47.3097 17.3016 46.1923 17.3016ZM66.2212 32.3223C64.5021 32.3223 62.9979 31.957 61.7086 31.2264C60.4193 30.4958 59.4093 29.4965 58.6787 28.2287C57.9695 26.9394 57.615 25.4566 57.615 23.7805C57.615 21.911 57.9803 20.3208 58.7109 19.01C59.463 17.6777 60.43 16.6677 61.6119 15.9801C62.8153 15.2709 64.0831 14.9164 65.4154 14.9164C66.4039 14.9164 67.3602 15.099 68.2842 15.4643C69.2082 15.8296 70.0248 16.3669 70.7339 17.076C71.443 17.7636 72.0125 18.6017 72.4423 19.5902C72.872 20.5572 73.0977 21.6424 73.1192 22.8457C73.1192 23.1896 72.9902 23.4797 72.7324 23.716C72.4745 23.9524 72.1737 24.0706 71.8298 24.0706H59.0977L58.5175 21.8465H70.9273L70.4116 22.2978V21.5887C70.3256 20.7076 70.0248 19.9555 69.509 19.3323C69.0148 18.6877 68.4024 18.1934 67.6717 17.8496C66.9626 17.5058 66.2105 17.3339 65.4154 17.3339C64.7707 17.3339 64.1261 17.452 63.4814 17.6884C62.8582 17.9033 62.2888 18.2686 61.773 18.7844C61.2788 19.2786 60.8705 19.9233 60.5482 20.7184C60.2473 21.5134 60.0969 22.4697 60.0969 23.5871C60.0969 24.8335 60.344 25.9294 60.8383 26.8749C61.354 27.8204 62.0631 28.5725 62.9657 29.1312C63.8682 29.6685 64.9212 29.9371 66.1245 29.9371C66.8767 29.9371 67.5321 29.8404 68.0908 29.647C68.6495 29.4536 69.133 29.2172 69.5413 28.9378C69.9496 28.637 70.2934 28.3362 70.5727 28.0353C70.8521 27.8419 71.1207 27.7452 71.3786 27.7452C71.7009 27.7452 71.9588 27.8527 72.1522 28.0675C72.3671 28.2824 72.4745 28.5403 72.4745 28.8411C72.4745 29.2064 72.3026 29.5288 71.9588 29.8081C71.3571 30.4743 70.5405 31.0652 69.509 31.581C68.4776 32.0752 67.3816 32.3223 66.2212 32.3223ZM85.2789 14.9164C86.7402 14.9164 87.8898 15.2172 88.7279 15.8189C89.5659 16.4206 90.1569 17.2264 90.5007 18.2364C90.866 19.2464 91.0487 20.3745 91.0487 21.6209V30.6784C91.0487 31.0437 90.9197 31.3553 90.6619 31.6132C90.4255 31.8711 90.1247 32 89.7593 32C89.394 32 89.0824 31.8711 88.8246 31.6132C88.5882 31.3553 88.47 31.0437 88.47 30.6784V21.6853C88.47 20.8688 88.3411 20.1382 88.0832 19.4935C87.8468 18.8273 87.4385 18.3009 86.8583 17.9141C86.2996 17.5058 85.526 17.3016 84.5376 17.3016C83.635 17.3016 82.8077 17.5058 82.0556 17.9141C81.3035 18.3009 80.7018 18.8273 80.2505 19.4935C79.7993 20.1382 79.5736 20.8688 79.5736 21.6853V30.6784C79.5736 31.0437 79.4447 31.3553 79.1868 31.6132C78.9504 31.8711 78.6496 32 78.2843 32C77.919 32 77.6074 31.8711 77.3495 31.6132C77.1132 31.3553 76.995 31.0437 76.995 30.6784V16.6247C76.995 16.2594 77.1132 15.9586 77.3495 15.7222C77.6074 15.4643 77.919 15.3354 78.2843 15.3354C78.6711 15.3354 78.9827 15.4643 79.2191 15.7222C79.4554 15.9586 79.5736 16.2594 79.5736 16.6247V18.9133L78.929 19.6224C79.0364 19.0637 79.2835 18.505 79.6703 17.9463C80.0571 17.3661 80.5406 16.8504 81.1208 16.3991C81.701 15.9478 82.3457 15.5933 83.0548 15.3354C83.764 15.056 84.5053 14.9164 85.2789 14.9164ZM95.174 15.4321H102.749C103.093 15.4321 103.372 15.5503 103.587 15.7867C103.823 16.023 103.941 16.3024 103.941 16.6247C103.941 16.9685 103.823 17.2586 103.587 17.495C103.372 17.7099 103.093 17.8174 102.749 17.8174H95.174C94.8517 17.8174 94.5723 17.6992 94.336 17.4628C94.0996 17.2264 93.9814 16.9363 93.9814 16.5925C93.9814 16.2702 94.0996 16.0015 94.336 15.7867C94.5723 15.5503 94.8517 15.4321 95.174 15.4321ZM98.5585 11.0484C98.9238 11.0484 99.2247 11.1773 99.4611 11.4352C99.6974 11.6715 99.8156 11.9724 99.8156 12.3377V27.9064C99.8156 28.4221 99.8908 28.8089 100.041 29.0668C100.192 29.3246 100.385 29.5073 100.621 29.6147C100.879 29.7007 101.126 29.7437 101.363 29.7437C101.578 29.7437 101.76 29.7114 101.911 29.647C102.083 29.561 102.276 29.518 102.491 29.518C102.706 29.518 102.899 29.6255 103.071 29.8404C103.265 30.0338 103.361 30.2916 103.361 30.614C103.361 31.0008 103.136 31.3338 102.684 31.6132C102.233 31.8711 101.728 32 101.169 32C100.869 32 100.493 31.9785 100.041 31.9355C99.6115 31.8926 99.1817 31.7529 98.7519 31.5165C98.3221 31.2801 97.9568 30.8933 97.656 30.3561C97.3766 29.7974 97.237 29.0238 97.237 28.0353V12.3377C97.237 11.9724 97.3659 11.6715 97.6238 11.4352C97.8816 11.1773 98.1932 11.0484 98.5585 11.0484ZM115.78 12.789L108.205 31.2264C108.119 31.4843 107.969 31.6884 107.754 31.8388C107.539 31.9893 107.314 32.0645 107.077 32.0645C106.669 32.0645 106.368 31.957 106.175 31.7421C105.981 31.5272 105.885 31.2694 105.885 30.9685C105.863 30.8181 105.885 30.6569 105.949 30.485L114.297 10.1781C114.405 9.87722 114.566 9.66234 114.781 9.5334C115.017 9.38298 115.275 9.31851 115.555 9.34C115.834 9.34 116.081 9.41521 116.296 9.56564C116.532 9.71606 116.693 9.9202 116.779 10.1781L125.096 30.2916C125.16 30.4635 125.192 30.6355 125.192 30.8074C125.192 31.1942 125.063 31.5058 124.805 31.7421C124.548 31.957 124.258 32.0645 123.935 32.0645C123.677 32.0645 123.441 31.9893 123.226 31.8388C123.011 31.6884 122.85 31.4735 122.743 31.1942L115.071 12.7567L115.78 12.789ZM109.817 25.9724L110.913 23.4582H120.486L120.97 25.9724H109.817ZM131.399 30.6784C131.399 31.0437 131.259 31.3553 130.98 31.6132C130.722 31.8711 130.41 32 130.045 32C129.637 32 129.315 31.8711 129.078 31.6132C128.842 31.3553 128.724 31.0437 128.724 30.6784V10.7583C128.724 10.3715 128.853 10.0599 129.11 9.8235C129.368 9.56564 129.691 9.4367 130.077 9.4367C130.443 9.4367 130.754 9.56564 131.012 9.8235C131.27 10.0599 131.399 10.3715 131.399 10.7583V30.6784Z" fill="#171B44"></path><g clip-path="url(#clip0_4134_2033)"><g filter="url(#filter0_f_4134_2033)"><ellipse cx="26.7266" cy="23.7554" rx="7.32032" ry="7.60503" fill="url(#paint0_radial_4134_2033)"></ellipse></g><g filter="url(#filter1_f_4134_2033)"><path d="M28.5332 17.5703C28.3809 18.7783 28.3306 19.5453 28.0332 20.0405C27.547 20.656 26.7044 20.7146 25.1562 20.8537C26.6793 21.0328 27.5027 21.0717 27.9903 21.6355C28.3546 22.1346 28.4162 22.9066 28.5332 24.137C28.7317 22.5413 28.7628 21.7355 29.4824 21.2769C29.9941 21.0366 30.7576 20.9842 31.9101 20.8537C30.481 20.6834 29.6519 20.6443 29.1583 20.2198C28.7409 19.736 28.6964 18.9327 28.5332 17.5703Z" fill="#525EB8"></path></g><g filter="url(#filter2_f_4134_2033)"><path d="M28.5332 17.5703C28.3809 18.7783 28.3306 19.5453 28.0332 20.0405C27.547 20.656 26.7044 20.7146 25.1562 20.8537C26.6793 21.0328 27.5027 21.0717 27.9903 21.6355C28.3546 22.1346 28.4162 22.9066 28.5332 24.137C28.7317 22.5413 28.7628 21.7355 29.4824 21.2769C29.9941 21.0366 30.7576 20.9842 31.9101 20.8537C30.481 20.6834 29.6519 20.6443 29.1583 20.2198C28.7409 19.736 28.6964 18.9327 28.5332 17.5703Z" fill="white"></path></g><g filter="url(#filter3_f_4134_2033)"><path d="M28.5332 17.5703C28.3809 18.7783 28.3306 19.5453 28.0332 20.0405C27.547 20.656 26.7044 20.7146 25.1562 20.8537C26.6793 21.0328 27.5027 21.0717 27.9903 21.6355C28.3546 22.1346 28.4162 22.9066 28.5332 24.137C28.7317 22.5413 28.7628 21.7355 29.4824 21.2769C29.9941 21.0366 30.7576 20.9842 31.9101 20.8537C30.481 20.6834 29.6519 20.6443 29.1583 20.2198C28.7409 19.736 28.6964 18.9327 28.5332 17.5703Z" fill="white"></path></g><g filter="url(#filter4_f_4134_2033)"><path d="M28.5332 17.5703C28.3809 18.7783 28.3306 19.5453 28.0332 20.0405C27.547 20.656 26.7044 20.7146 25.1562 20.8537C26.6793 21.0328 27.5027 21.0717 27.9903 21.6355C28.3546 22.1346 28.4162 22.9066 28.5332 24.137C28.7317 22.5413 28.7628 21.7355 29.4824 21.2769C29.9941 21.0366 30.7576 20.9842 31.9101 20.8537C30.481 20.6834 29.6519 20.6443 29.1583 20.2198C28.7409 19.736 28.6964 18.9327 28.5332 17.5703Z" fill="white"></path></g><path d="M28.5332 17.5703C28.3809 18.7783 28.3306 19.5453 28.0332 20.0405C27.547 20.656 26.7044 20.7146 25.1562 20.8537C26.6793 21.0328 27.5027 21.0717 27.9903 21.6355C28.3546 22.1346 28.4162 22.9066 28.5332 24.137C28.7317 22.5413 28.7628 21.7355 29.4824 21.2769C29.9941 21.0366 30.7576 20.9842 31.9101 20.8537C30.481 20.6834 29.6519 20.6443 29.1583 20.2198C28.7409 19.736 28.6964 18.9327 28.5332 17.5703Z" fill="white"></path><path d="M26.2426 15.1134C31.4317 14.7848 35.7113 19.0645 35.3827 24.2535C35.1126 28.5331 31.6405 32.0052 27.3584 32.2778C22.1719 32.6039 17.8923 28.3268 18.2209 23.1377C18.4909 18.8556 21.963 15.3835 26.2426 15.1134ZM26.803 16.5807C22.2101 16.512 18.7074 21.0845 19.9174 25.4941C21.9936 21.8309 26.696 21.8335 27.0833 22.3328C17.3191 28.7191 28.7671 29.8909 33.1257 26.9588C35.6043 22.4245 32.0201 16.4457 26.803 16.5807Z" fill="url(#paint1_linear_4134_2033)"></path></g><defs><filter id="filter0_f_4134_2033" x="18.4018" y="15.1459" width="16.6496" height="17.2199" filterUnits="userSpaceOnUse" color-interpolation-filters="sRGB"></filter><filter id="filter1_f_4134_2033" x="23.4608" y="15.8749" width="10.1409" height="9.95726" filterUnits="userSpaceOnUse" color-interpolation-filters="sRGB"></filter><filter id="filter2_f_4134_2033" x="23.5345" y="15.9486" width="9.99343" height="9.80983" filterUnits="userSpaceOnUse" color-interpolation-filters="sRGB"></filter><filter id="filter3_f_4134_2033" x="23.5345" y="15.9486" width="9.99343" height="9.80983" filterUnits="userSpaceOnUse" color-interpolation-filters="sRGB"></filter><filter id="filter4_f_4134_2033" x="23.5345" y="15.9486" width="9.99343" height="9.80983" filterUnits="userSpaceOnUse" color-interpolation-filters="sRGB"></filter><radialGradient id="paint0_radial_4134_2033" cx="0" cy="0" r="1" gradientUnits="userSpaceOnUse" gradientTransform="translate(26.7266 23.7554) rotate(90) scale(12.9721 12.4865)"><stop stop-color="white"></stop><stop offset="0.610577" stop-color="#D2D7FE" stop-opacity="0.7"></stop></radialGradient><linearGradient id="paint1_linear_4134_2033" x1="32.6475" y1="14.3064" x2="22.0826" y2="32.0696" gradientUnits="userSpaceOnUse"><stop stop-color="white"></stop><stop offset="0.578179" stop-color="#525DB8"></stop><stop offset="1" stop-color="#525EB9"></stop></linearGradient><clipPath id="clip0_4134_2033"><rect width="17.2" height="17.2" fill="white" transform="translate(18.2031 15.0957)"></rect></clipPath></defs></svg>